<svg width="21" height="17" viewBox="0 0 21 17" fill="none" xmlns="http://www.w3.org/2000/svg">
<path d="M0.75 4.5H20.25M0.75 5.25H20.25M3.75 10.5H9.75M3.75 12.75H6.75M3 15.75H18C18.5967 15.75 19.169 15.5129 19.591 15.091C20.0129 14.669 20.25 14.0967 20.25 13.5V3C20.25 2.40326 20.0129 1.83097 19.591 1.40901C19.169 0.987053 18.5967 0.75 18 0.75H3C2.40326 0.75 1.83097 0.987053 1.40901 1.40901C0.987053 1.83097 0.75 2.40326 0.75 3V13.5C0.75 14.0967 0.987053 14.669 1.40901 15.091C1.83097 15.5129 2.40326 15.75 3 15.75Z" stroke="#71D771" stroke-width="1.5" stroke-linecap="round" stroke-linejoin="round"/>
</svg>
